<?xml version="1.0" encoding="utf-8"?>
<!-- Generator: Adobe Illustrator 25.3.1, SVG Export Plug-In . SVG Version: 6.00 Build 0)  -->
<svg version="1.1" id="Layer_1" xmlns="http://www.w3.org/2000/svg" xmlns:xlink="http://www.w3.org/1999/xlink" x="0px" y="0px"
	 viewBox="0 0 266 77" enable-background="new 0 0 266 77" xml:space="preserve">
<path fill="none" stroke="#231F20" stroke-miterlimit="10" d="M36,44.8c2.2-0.4,3.3-2.1,3.3-3.6c0-1.7-3-3.8-5.8-10.3
	c-2.6-5.8-1.5-10.5,0.7-14c2.2-3.7,4.4-5.7,2.2-7.7c-1.8-1.6-5.2,0.1-9,2.4c-0.6,0.4-0.8,0.4-1.4-0.1c-3.6-3.1-7.2-4.3-13.1-4.3
	c-6.7,0-9.1,2.6-9.1,4.3c0,1.6,1.8,2.6,4.1,2.1c3.4-0.7,8.5-0.3,11.1,1.2c0.8,0.4,0.8,0.9,0,1.4C5.7,23.8-3.3,39.9,3.2,44.6
	c1,0.7,2.4,1.1,4,1 M22.5,37.4c1.2-1.4,2.2-3,3-4.7c0.3-0.8,0.8-0.8,0.9,0c0.2,1.5,0.5,3,0.8,4.2 M10.3,36.9
	c-1.9-1.3-0.5-5.3,3.7-10.6c3.1-3.9,6.2-6.1,8-7.2c0.7-0.5,1-0.4,1.4,0.2c1.3,2.7,0.4,6.8-3.3,11.7C16.5,35.9,12.1,38.2,10.3,36.9z
	 M43.1,45.1c2.5,0,3.9-0.4,6-0.4c2.1,0,4,0.4,6,0.4c1.8,0,3-0.9,3-2.2c0-2.3-1.8-2-3.9-4.6c-1.2-1.7-1.5-5.4-1.5-9.6v-6.2
	c0-9.2,0.4-10.7,0.9-12.7c0.5-1.9,1-4.3-0.4-5.6c-1.2-1.1-2.6-1-6.1,1.1c-2.2,1.4-4.5,2.1-5.7,3c-1,0.8-1.5,1.9-0.9,3
	c1.4,2.4,4.8,0.9,4.8,11.4v5.9c0,4.2-0.3,8-1.5,9.6c-2,2.7-3.9,2.3-3.9,4.6C40,44.2,41.2,45.1,43.1,45.1z M60.3,18.9
	c3.1-1.4,6.7-5.1,7.8-7.6c1.2-3,1.2-5.6-1.1-8c-2.5-2.6-5.3-2.5-7.8,0c-4,3.9,2.4,5.2,2.4,8.4c0,1.6-0.9,2.4-2.4,3.6
	c-1.7,1.3-2.4,2.2-2,3.1C57.6,19.6,58.8,19.6,60.3,18.9z M78.4,45.6c7.6,0,13.3-3,13.3-8.5c0-5.2-4.1-7.9-11.1-10
	c-4.8-1.4-6.5-2.4-6.5-4c0-1.6,1.3-2.5,4-2.5c2.8,0,5.8,1.5,7.2,3.8c1.1,1.7,2.3,4,3.8,3.4c1.5-0.6,0.7-2.5,0.6-4.7
	c-0.1-2.4,0.1-3.7,0.1-4.4c0.1-1.2-0.8-1.2-2.5-1.1c-2.4,0.1-4.2-0.9-8.4-0.9c-5.3,0-12.6,2.1-12.6,8.7c0,5.1,3.6,8,10.1,10
	c5.2,1.6,7.5,2.4,7.5,3.8c0,1.6-1.9,2.2-4.4,2.2c-3.4,0-7-2.1-8.4-4c-1.2-1.7-2.3-3.8-3.9-3.1c-1.4,0.6-0.7,2.2-0.6,4.5
	c0.1,1.4,0,3-0.1,3.9c-0.1,1,0.4,1.6,1.6,1.9C71.4,45.3,74.3,45.6,78.4,45.6z M22.3,75.2c8.8,0,14.6-4.8,14.6-11.9
	c0-5.4-3.2-8.8-7.6-8.9c-0.6,0-0.6-0.3-0.2-0.5c3.5-1.8,6.6-4.2,6.6-9.5c0-4.6-3.6-7.7-8.9-7.7c-4.4,0-7,2-11.1,2s-8.7-1.3-10.3-1.3
	c-1.9,0-3.1,0.8-3.1,2.2c0,2.3,1.8,2,3.9,4.6c1.2,1.7,1.5,5.4,1.5,9.6v4.8c0,4.2-0.3,8-1.5,9.6c-2.1,2.7-3.9,2.3-3.9,4.7
	c0,1.4,1.2,2.2,3.1,2.2c2.6,0,3.9-0.4,6-0.4C14.8,74.7,17.9,75.2,22.3,75.2z M14.7,48.3c0.9-3.2,3.7-5.2,7.1-5.8
	c3.4-0.6,6.3,0.8,6.3,3.5c0,5.5-9.5,10.6-12.3,9.2C14.3,54.6,13.7,51.6,14.7,48.3z M15.5,69.6c-1.6-2-2.3-7.3,1.4-9.8
	c3.6-2.2,7.7-2.7,10.2-1.2c2.8,1.7,2.8,6-1.1,9.9C22.9,71.5,17.3,71.8,15.5,69.6z M41.1,75.3c2.5,0,5.4-0.4,7.5-0.4
	c2.1,0,5.5,0.4,7,0.4s2.8-0.9,2.9-2.6c0-2.9-3.8-1.9-5.7-4.3c-1.1-1.5-1.4-3-1.5-6.3c0.4-8,5.4-8.1,7.2-6.2c1.8,1.9,3,5.5,5,4.7
	c1.9-0.8,0.9-3.5,0.8-6.4c-0.2-3,0.7-6.8,0.8-7.6c0.1-1.6-1-1.7-2.6-1.5c-2.8,0.4-8.1,4.4-10.9,9c0-0.6,0.1-1.2,0.2-1.8
	c0.5-3,0.5-5.6-1.3-6.1c-1.8-0.6-3.1,0.7-5.7,2.3c-2.2,1.4-3.4,1.4-4.6,2.3c-1,0.8-1.5,1.9-0.9,3c1.4,2.3,4.8,1.9,4.8,7.9
	c0,3.2-0.3,5.1-1.5,6.7c-1.8,2.4-4.4,2.1-4.4,4.5C38.1,74.2,39.3,75.3,41.1,75.3z M79.5,75.6c5.4,0,10.1-2.4,12.8-7.2
	c0.7-1.2,0.8-1.8,0-2.3c-0.6-0.5-1.1-0.3-2.1,0.6c-3.3,2.8-12.1,3.7-15.7-3c-0.4-0.7-0.7-1.5-0.9-2.2l12.8-0.9
	c3.1-0.2,4.1-0.4,4.1-3.4c0-7.2-4.2-10.5-10.8-10.5c-8.1,0-14.5,6.5-14.5,14.5C65,69.5,71.5,75.6,79.5,75.6z M72.8,57.3
	c-0.1-2.7,0.8-5.1,2.6-6.2c3.7-2.2,7.2,0.2,7.2,4.7L72.8,57.3z M118.7,75.2c2.2,0,4.1-2,4.1-3.7c0-1.7-3.1-4-5.2-9
	c-1.9-4.4-2.2-6.5-0.6-9.2c1.7-2.8,3.8-4.2,2.2-5.8c-1.2-1.2-4.4-0.2-7.6,1.3c-2.4-1.8-5-2.8-8.8-2.8c-5.1,0-9.5,2.5-9.4,3.8
	c0.1,1.2,1,2.2,2.7,2.2c2.3-0.1,5.7-0.4,8.5,0.8C94,58.7,89.4,71,94.3,74.7c3.3,2.5,11.9-1,16.2-7.8
	C112.1,72.5,115.5,75.2,118.7,75.2z M102,66.7c-1.4-1-0.8-3.6,1.5-6.4c1.8-2.2,3.2-3.5,4.7-4.5c1.3,2.5,1,5.8-0.8,8.2
	C105.4,66.8,103.3,67.7,102,66.7z M125.9,75.1c2.5,0,3.9-0.4,6-0.4c2.1,0,4,0.4,6,0.4c1.8,0,3-0.9,3-2.2c0-2.4-1.8-2-3.8-4.7
	c-2.4-3.8,0.8-5.5,2.7-6.9c1.6,2.5,4.6,7.9,5.9,9.5c2.6,3.4,4.7,4.8,9.1,4.8c2.4,0,4.7-0.9,4.7-2.3c0-1.6-1.1-1.3-3.6-3.2
	c-2-1.5-4.7-4.1-6.4-6.7l-3.9-6c2.6-1.7,6.2-3.9,7.8-4.9c2.2-1.4,3.7-1.6,3.8-3.2c0.1-1.1-0.7-2.2-2.6-2.2c-2,0-3.2,0.4-5.3,0.4
	c-2.1,0-4.5-0.4-6-0.4c-1.4,0-2.6,1.1-2.6,2.2c0,2.1,2.6,1.6,3.1,3.3c0.4,1.7-3.2,4.1-5.1,5.1c-1.4,0.7-2.1,1-2.6,0.8
	c-0.6-0.2-0.7-0.7-0.7-2.1v-3.9c0-9.2,0.4-10.6,0.9-12.6c0.5-1.9,1.1-4.4-0.3-5.7c-1.2-1.1-2.6-1-6.1,1.2c-2.2,1.3-4.5,2.1-5.7,3
	c-1,0.8-1.5,1.9-0.9,3c1.4,2.3,4.8,1,4.8,11.4v6c0,4.2-0.3,8-1.5,9.6c-2,2.7-3.8,2.3-3.8,4.7C122.8,74.2,124,75.1,125.9,75.1z
	 M158.8,74.1c0.5,0.7,1.4,1.1,2.7,1.1c2.6,0,3.9-0.3,6-0.3c2.2,0,4,0.3,6,0.3c1.9,0,3.1-0.9,3.1-2.2c0-2.3-1.8-2-3.8-4.7
	c-1.2-1.7-1.6-5.5-1.6-9.7V57v-2.7l4.4,0.3c4.2,0.3,4.7-1.4,6.1-4.1c0.6-1.1,0.2-1.9-1.4-1.9l-8.9,0.2c0.4-5,1.4-8.8,4.1-8.8
	c2.9,0,3.5,5,5.4,4.9c2-0.1,1.8-2.3,2-5.2c0.2-2.1,0.6-3.3,0.5-4.9c-0.1-1-0.6-1.5-1.8-1.5c-6.2,0-14.1,3.4-16.5,9.4
	c-1.9,5-3,6.1-5.2,7c-1.2,0.5-1.6,1.9-0.9,3c1.4,2.3,4.9-1,4.9,7.4v1.5c0,4.2-0.3,5.1-1.6,6.7c-1.7,2.2-3.2,2.3-3.7,3.6 M208.3,75.2
	c2.1,0,4.1-2,4.1-3.7c0-1.7-3.1-4-5.2-9c-1.9-4.4-2.2-6.5-0.6-9.2c1.7-2.8,3.8-4.2,2.2-5.8c-1.2-1.2-4.4-0.2-7.6,1.3
	c-2.4-1.8-5-2.8-8.9-2.8c-5.1,0-9.5,2.5-9.4,3.8c0.1,1.2,0.9,2.2,2.7,2.2c2.4-0.1,5.7-0.4,8.6,0.8c-10.7,5.8-15.3,18.2-10.4,21.9
	c3.3,2.5,11.9-1,16.2-7.8C201.7,72.5,205,75.2,208.3,75.2z M191.5,66.7c-1.4-1-0.8-3.6,1.5-6.4c1.8-2.2,3.2-3.5,4.7-4.5
	c1.3,2.5,1,5.8-0.8,8.2C195,66.8,192.9,67.7,191.5,66.7z M225.4,75.6c7.6,0,13.4-3.1,13.4-8.5c0-5.3-4.1-7.9-11.1-10
	c-4.8-1.4-6.5-2.4-6.5-4c0-1.6,1.4-2.5,4-2.5c2.8,0,5.8,1.5,7.2,3.8c1.1,1.7,2.3,4,3.8,3.4c1.5-0.6,0.7-2.5,0.6-4.7
	c-0.1-2.4,0.1-3.7,0.1-4.4c0.1-1.2-0.8-1.2-2.5-1.1c-2.4,0-4.2-0.9-8.4-0.9c-5.4,0-12.6,2.2-12.6,8.7c0,5.1,3.6,8,10.1,10.1
	c5.2,1.6,7.6,2.4,7.6,3.8c0,1.6-1.9,2.2-4.4,2.2c-3.4,0-7-2.1-8.4-4c-1.2-1.6-2.3-3.8-3.9-3.1c-1.4,0.6-0.7,2.2-0.6,4.5
	c0.1,1.3,0,2.9-0.1,3.9c-0.1,1.1,0.4,1.6,1.6,1.9C218.4,75.3,221.3,75.6,225.4,75.6z M252.7,75.6c4.9,0,9.2-2.4,11.8-7.2
	c0.6-1.2,0.8-1.8,0-2.3c-0.6-0.5-1-0.3-2.1,0.6c-1.4,1.2-2.9,2.2-5.7,2.2c-3.7,0-6.4-4.5-6.2-11.6c0-0.9,0.1-2.2,0.2-3.6l6.8,0.5
	c4.2,0.3,4.8-1.4,6.1-4.1c0.6-1.1,0.2-1.9-1.5-1.9l-11,0.3c0.1-0.8,0.2-1.5,0.4-2c0.4-2.3,0.7-4-0.8-4.8c-2-1-3.4,1.7-5.9,3.8
	c-2,1.7-4,2.6-5.2,3.5c-1.1,0.8-1.6,1.9-0.9,3c1.4,2.3,5-1.5,4.4,9.2C242.7,69.5,246.7,75.6,252.7,75.6z M27.2,36.8 M35.4,44.8"/>
<path fill="none" stroke="#231F20" stroke-miterlimit="10" d="M6.8,45.6"/>
<path fill="none" stroke="#231F20" stroke-miterlimit="10" d="M22.6,37.3"/>
<path fill="none" stroke="#231F20" stroke-miterlimit="10" d="M19.3,40.5"/>
</svg>
