<?xml version="1.0" encoding="utf-8"?>
<!-- Generator: Adobe Illustrator 25.3.1, SVG Export Plug-In . SVG Version: 6.00 Build 0)  -->
<svg version="1.1" id="Layer_1" xmlns="http://www.w3.org/2000/svg" xmlns:xlink="http://www.w3.org/1999/xlink" x="0px" y="0px"
	 viewBox="0 0 1300 250" enable-background="new 0 0 1300 250" xml:space="preserve">
<path fill="#FFF3DF" d="M0,149.9c0-25,0-50,0-75c38.7-13.1,97.6-29.5,171-36c35.8-3.2,53.4-2.1,100-2c219.3,0.4,272.8-23.4,382-3
	c7,1.3,40.6,7.7,86,14c65.4,9.1,94.8,9.5,114,9.2c33.1-0.6,29.6-3.7,48-2.2c46.8,3.8,61.4,22.8,96,22c23-0.5,24.2-9.1,60-21
	c38.8-12.9,57.5-9.5,163-15c18.6-1,46.2-2.5,80-5c12.5,33.9,27.9,91.6,0,131c-24.7,34.9-72.1,39.5-207.5,40.1
	c-113.2,0.5-169.8,0.7-294.4-5.2c-142.7-6.8-214.1-10.2-271.8-7c-260.9,14.4-390.5,102.7-515.7,20.9c-15.5-10.1-26.7-20.1-33.1-26.1
	"/>
<g id="Layer_1_1_">
	<path fill="#FFFCF4" d="M0,137c0-25,0-50,0-75c38.7-13.1,97.6-29.5,171-36c35.8-3.2,53.4-2.1,100-2c219.3,0.4,272.8-23.4,382-3
		c7,1.3,40.6,7.7,86,14c65.4,9.1,94.8,9.5,114,9.2c33.1-0.6,29.6-3.7,48-2.2c46.8,3.8,61.4,22.8,96,22c23-0.5,24.2-9.1,60-21
		c38.8-12.9,57.5-9.5,163-15c18.6-1,46.2-2.5,80-5c12.5,33.9,27.9,91.6,0,131c-24.7,34.9-72.1,39.5-207.5,40.1
		c-113.2,0.5-169.8,0.7-294.4-5.2c-142.7-6.8-214.1-10.2-271.8-7c-260.9,14.4-390.5,102.7-515.7,20.9
		c-15.5-10.1-26.7-20.1-33.1-26.1"/>
	<path fill="#FFFCF4" d="M226,169"/>
</g>
<g id="Layer_1_2_">
	<path fill="#B4B8FF" d="M226,181.9"/>
</g>
<path fill="#FFD674" d="M574.3,97.5c5.1,31.2,189.6,43.6,204,3.8C784.5,84,758,59,739,47.9C671.2,8.5,570.3,73.1,574.3,97.5z"/>
<path fill="#FFD674" d="M704.5,48.3"/>
<path fill="#FFFFFF" d="M726.9,52.5c-0.2,0.1-0.5-0.1-0.7-0.2c-5.6-2.8-22.5-5-22.4-8.1c0.1-2.1,7.8-5.5,14.4-2.9
	C724.9,44,727.6,51.9,726.9,52.5z"/>
<path fill="#FFFFFF" d="M736.9,56c-0.1,0-0.2-0.2-0.3-0.3c-1.7-2.6-8.4-7.9-7.6-9.2c0.6-0.9,4.7-0.4,6.9,2.4
	C738.2,51.8,737.3,55.9,736.9,56z"/>
</svg>
